<?xml version="1.0" ?>
<svg fill="none" height="24" viewBox="0 0 24 24" width="24" xmlns="http://www.w3.org/2000/svg">
    <path clip-rule="evenodd"
          d="M21.3236 3.61883C21.4655 3.73929 21.5287 3.92858 21.4877 4.11014L17.9877 19.6101C17.9496 19.7792 17.8266 19.9164 17.6627 19.9728C17.4989 20.0292 17.3175 19.9967 17.1834 19.887L12.1465 15.7659L9.93709 19.7428C9.83888 19.9196 9.64385 20.0198 9.44294 19.9967C9.24203 19.9737 9.07481 19.8318 9.01925 19.6374L7.10301 12.9305L2.40196 11.9903C2.18541 11.947 2.02292 11.7667 2.00222 11.5469C1.98151 11.327 2.1075 11.1196 2.31216 11.0366L20.8122 3.53664C20.9846 3.46671 21.1817 3.49838 21.3236 3.61883ZM4.23344 11.3368L7.59807 12.0097C7.78165 12.0464 7.92934 12.1826 7.98078 12.3626L9.64916 18.202L11.5629 14.7572C11.6349 14.6277 11.7606 14.5367 11.9061 14.5089C12.0516 14.4811 12.202 14.5192 12.3166 14.613L17.1905 18.6007L20.3017 4.82265L4.23344 11.3368Z"
          fill="black" fill-rule="evenodd"/>
    <path clip-rule="evenodd"
          d="M21.4232 3.7336C21.5703 3.96728 21.5002 4.27599 21.2665 4.42312L7.76647 12.9231C7.53279 13.0703 7.22408 13.0001 7.07695 12.7664C6.92982 12.5327 6.99998 12.224 7.23366 12.0769L20.7337 3.57689C20.9673 3.42976 21.276 3.49992 21.4232 3.7336Z"
          fill="black" fill-rule="evenodd"/>
    <path clip-rule="evenodd"
          d="M21.3166 3.61304C21.5304 3.7879 21.5619 4.10291 21.387 4.31663L12.387 15.3166C12.2121 15.5304 11.8971 15.5619 11.6834 15.387C11.4697 15.2121 11.4382 14.8971 11.613 14.6834L20.613 3.6834C20.7879 3.46967 21.1029 3.43817 21.3166 3.61304Z"
          fill="black" fill-rule="evenodd"/>
</svg>